<?xml version="1.0" encoding="UTF-8"?>
<svg version="1.1" xmlns="http://www.w3.org/2000/svg" width="50" height="50">
<path d="M0 0 C3.28494729 0.70391728 4.56429572 2.25945283 6.5546875 4.89453125 C7.91748008 7.01829925 8.84934324 9.16501547 9.625 11.5625 C10.26308594 11.62308594 10.90117188 11.68367187 11.55859375 11.74609375 C12.38488281 11.82988281 13.21117188 11.91367188 14.0625 12 C15.29806641 12.12181641 15.29806641 12.12181641 16.55859375 12.24609375 C18.625 12.5625 18.625 12.5625 19.625 13.5625 C19.72595564 16.21706193 19.76470998 18.84505176 19.7578125 21.5 C19.75876923 22.295271 19.75972595 23.09054199 19.76071167 23.90991211 C19.76139343 25.5945646 19.75953943 27.27921971 19.75537109 28.96386719 C19.75002275 31.55149197 19.75531619 34.13894316 19.76171875 36.7265625 C19.76105797 38.35937539 19.7597768 39.99218816 19.7578125 41.625 C19.75983673 42.40415771 19.76186096 43.18331543 19.76394653 43.98608398 C19.73995105 49.44754895 19.73995105 49.44754895 18.625 50.5625 C15.97043807 50.66345564 13.34244824 50.70220998 10.6875 50.6953125 C9.49459351 50.69674759 9.49459351 50.69674759 8.27758789 50.69821167 C6.5929354 50.69889343 4.90828029 50.69703943 3.22363281 50.69287109 C0.63600803 50.68752275 -1.95144316 50.69281619 -4.5390625 50.69921875 C-6.17187539 50.69855797 -7.80468816 50.6972768 -9.4375 50.6953125 C-10.21665771 50.69733673 -10.99581543 50.69936096 -11.79858398 50.70144653 C-17.26004895 50.67745105 -17.26004895 50.67745105 -18.375 49.5625 C-18.47595564 46.90793807 -18.51470998 44.27994824 -18.5078125 41.625 C-18.50876923 40.829729 -18.50972595 40.03445801 -18.51071167 39.21508789 C-18.51139343 37.5304354 -18.50953943 35.84578029 -18.50537109 34.16113281 C-18.50002275 31.57350803 -18.50531619 28.98605684 -18.51171875 26.3984375 C-18.51105797 24.76562461 -18.5097768 23.13281184 -18.5078125 21.5 C-18.50983673 20.72084229 -18.51186096 19.94168457 -18.51394653 19.13891602 C-18.48995105 13.67745105 -18.48995105 13.67745105 -17.375 12.5625 C-15.85571962 12.49070036 -14.33332518 12.47857993 -12.8125 12.5 C-11.98621094 12.50902344 -11.15992188 12.51804687 -10.30859375 12.52734375 C-9.67050781 12.53894531 -9.03242188 12.55054688 -8.375 12.5625 C-8.19324219 11.94761719 -8.01148438 11.33273437 -7.82421875 10.69921875 C-7.57285156 9.89097656 -7.32148438 9.08273437 -7.0625 8.25 C-6.81886719 7.44949219 -6.57523438 6.64898437 -6.32421875 5.82421875 C-4.92414577 2.48824239 -3.55049486 0.84090668 0 0 Z M-0.375 3.5625 C-3.51206517 7.66197304 -3.51206517 7.66197304 -4.375 12.5625 C-1.075 12.5625 2.225 12.5625 5.625 12.5625 C3.70108351 7.24838506 3.70108351 7.24838506 -0.375 3.5625 Z M-15.375 15.5625 C-15.375 26.1225 -15.375 36.6825 -15.375 47.5625 C-4.815 47.5625 5.745 47.5625 16.625 47.5625 C16.625 37.0025 16.625 26.4425 16.625 15.5625 C14.645 15.5625 12.665 15.5625 10.625 15.5625 C10.625 16.8825 10.625 18.2025 10.625 19.5625 C9.635 19.5625 8.645 19.5625 7.625 19.5625 C7.295 18.2425 6.965 16.9225 6.625 15.5625 C2.665 15.5625 -1.295 15.5625 -5.375 15.5625 C-5.705 16.8825 -6.035 18.2025 -6.375 19.5625 C-7.365 19.5625 -8.355 19.5625 -9.375 19.5625 C-9.375 18.2425 -9.375 16.9225 -9.375 15.5625 C-11.355 15.5625 -13.335 15.5625 -15.375 15.5625 Z " fill="#000000" transform="translate(24.375,-0.5625)"/>
<path d="M0 0 C3.44165321 0.35299007 5.06872538 1.04581692 8 3 C8.99 2.34 9.98 1.68 11 1 C13.1875 1.375 13.1875 1.375 15 2 C15 2.99 15 3.98 15 5 C11.5023486 6.59892636 8.85090034 7.39496414 5 7 C2.6875 6 2.6875 6 1 5 C0.67 5.66 0.34 6.32 0 7 C-0.99 7 -1.98 7 -3 7 C-2.25 2.25 -2.25 2.25 0 0 Z " fill="#000000" transform="translate(19,26)"/>
</svg>
